<svg width="701" height="227" viewBox="0 0 701 227" fill="none" xmlns="http://www.w3.org/2000/svg">
<g clip-path="url(#clip0_6_4)">
<g clip-path="url(#clip1_6_4)">
<g clip-path="url(#clip2_6_4)">
<g clip-path="url(#clip3_6_4)">
<g clip-path="url(#clip4_6_4)">
<path d="M695.733 128.8H287.378C285.077 128.8 283.212 130.665 283.212 132.967V133.971C283.212 136.273 285.077 138.138 287.378 138.138H695.733C698.035 138.138 699.9 136.273 699.9 133.971V132.967C699.9 130.665 698.035 128.8 695.733 128.8Z" fill="#9376E0"/>
<g clip-path="url(#clip5_6_4)">
<g clip-path="url(#clip6_6_4)">
<path d="M322.877 117.799C309.961 117.799 300.296 114.521 293.882 107.964C287.468 101.426 284.261 92.1441 284.261 80.1185V14.245H297.356V80.1185C297.356 88.7591 299.494 95.3064 303.77 99.7603C308.045 104.214 314.415 106.441 322.877 106.441C331.339 106.441 337.709 104.214 341.984 99.7603C346.26 95.3064 348.398 88.7591 348.398 80.1185V14.245H361.492V80.1185C361.492 92.1441 358.286 101.426 351.872 107.964C345.458 114.521 335.793 117.799 322.877 117.799ZM469.723 14.245H484.02V115.527H471.059V33.8868L440.06 77.0453H433.245L402.513 33.8868V115.527H389.552V14.245H403.716L436.719 60.4767L469.723 14.245ZM569.001 115.527L532.523 69.8299L525.575 77.1789V115.527H512.587V14.245H525.575V59.5414L568.6 14.245H585.035L541.315 60.4767L585.703 115.527H569.001ZM684.553 14.245H698.85V115.527H685.89V33.8868L654.89 77.0453H648.076L617.344 33.8868V115.527H604.383V14.245H618.546L651.55 60.4767L684.553 14.245Z" fill="#9376E0"/>
</g>
</g>
<g clip-path="url(#clip7_6_4)">
<g clip-path="url(#clip8_6_4)">
<path d="M308.471 169.076C308.471 172.753 306.965 175.952 303.952 178.672C300.94 181.401 297.351 182.876 293.186 183.098C293.142 183.851 293.111 184.414 293.093 184.786C293.067 185.167 293.054 185.49 293.054 185.756C293.054 187.794 293.399 189.234 294.09 190.075C294.773 190.917 296.022 191.338 297.838 191.338C299.921 191.338 301.839 190.86 303.593 189.903C305.339 188.955 307.341 187.196 309.601 184.626H311.86C309.291 188.791 306.5 191.879 303.487 193.89C300.474 195.91 297.174 196.92 293.585 196.92C290.174 196.92 287.595 196.034 285.85 194.262C284.095 192.49 283.218 189.854 283.218 186.354C283.218 183.829 283.617 181.148 284.414 178.313C285.212 175.478 286.275 172.952 287.604 170.737C289.243 168.079 291.206 166.072 293.492 164.716C295.769 163.369 298.326 162.696 301.161 162.696C303.598 162.696 305.427 163.214 306.65 164.251C307.864 165.297 308.471 166.905 308.471 169.076ZM301.693 166.218C300.186 166.218 298.671 167.556 297.147 170.232C295.614 172.917 294.471 176.142 293.718 179.908C296.288 179.731 298.538 178.543 300.47 176.346C302.393 174.157 303.354 171.69 303.354 168.943C303.354 168.012 303.221 167.326 302.955 166.883C302.69 166.44 302.269 166.218 301.693 166.218ZM324.221 181.769H310.863L312.06 176.519H325.351L324.221 181.769ZM345.021 189.411C345.021 188.613 345.119 187.617 345.314 186.42C345.518 185.224 345.93 183.319 346.55 180.705C347.17 178.18 347.569 176.364 347.746 175.256C347.923 174.148 348.012 173.218 348.012 172.465C348.012 171.357 347.812 170.516 347.414 169.94C347.015 169.364 346.417 169.076 345.619 169.076C344.556 169.076 343.568 169.616 342.656 170.697C341.752 171.787 341.012 173.285 340.436 175.19L335.917 196.522H326.348L333.392 163.294H342.961L342.23 166.75C343.338 165.509 344.534 164.579 345.819 163.959C347.104 163.338 348.499 163.028 350.006 163.028C352.354 163.028 354.17 163.671 355.455 164.955C356.74 166.24 357.382 168.101 357.382 170.538C357.382 171.557 357.258 172.766 357.01 174.166C356.771 175.557 356.297 177.693 355.588 180.572C355.012 182.832 354.635 184.427 354.458 185.357C354.281 186.288 354.192 187.063 354.192 187.683C354.192 188.613 354.414 189.309 354.857 189.77C355.3 190.239 355.964 190.474 356.85 190.474C357.958 190.474 358.91 190.098 359.708 189.344C360.505 188.591 361.414 187.019 362.433 184.626H365.224C363.806 188.746 362.087 191.825 360.067 193.863C358.055 195.901 355.654 196.92 352.863 196.92C350.382 196.92 348.455 196.243 347.081 194.887C345.708 193.54 345.021 191.715 345.021 189.411ZM378.834 154.456C378.834 155.918 378.315 157.158 377.279 158.177C376.233 159.196 374.979 159.706 373.517 159.706C372.055 159.706 370.815 159.196 369.796 158.177C368.777 157.158 368.267 155.918 368.267 154.456C368.267 152.994 368.777 151.74 369.796 150.694C370.815 149.658 372.055 149.139 373.517 149.139C374.979 149.139 376.233 149.658 377.279 150.694C378.315 151.74 378.834 152.994 378.834 154.456ZM361.888 188.946C361.888 188.37 361.932 187.714 362.021 186.979C362.109 186.252 362.242 185.468 362.419 184.626L366.938 163.294H376.508L371.723 185.889C371.634 186.288 371.568 186.651 371.524 186.979C371.479 187.315 371.457 187.661 371.457 188.015C371.457 188.901 371.67 189.531 372.095 189.903C372.512 190.284 373.207 190.474 374.182 190.474C375.422 190.474 376.596 189.929 377.704 188.839C378.812 187.758 379.631 186.354 380.163 184.626H382.954C381.536 188.658 379.631 191.715 377.239 193.797C374.846 195.879 372.1 196.92 368.998 196.92C366.783 196.92 365.046 196.22 363.788 194.82C362.521 193.429 361.888 191.471 361.888 188.946ZM401.761 166.351V166.816L402.492 163.294H412.061L407.276 185.889C407.188 186.288 407.121 186.651 407.077 186.979C407.033 187.315 407.011 187.661 407.011 188.015C407.011 188.99 407.232 189.708 407.675 190.169C408.118 190.638 408.805 190.873 409.735 190.873C410.887 190.873 411.928 190.328 412.859 189.238C413.789 188.157 414.542 186.62 415.118 184.626H417.909C416.492 188.702 414.653 191.772 412.393 193.837C410.134 195.893 407.52 196.92 404.552 196.92C402.647 196.92 401.132 196.389 400.006 195.325C398.872 194.262 398.216 192.756 398.039 190.806C396.666 192.844 395.151 194.373 393.494 195.392C391.828 196.411 390.042 196.92 388.137 196.92C385.391 196.92 383.233 195.99 381.665 194.129C380.087 192.269 379.299 189.632 379.299 186.221C379.299 183.74 379.675 181.148 380.429 178.446C381.182 175.743 382.223 173.285 383.552 171.069C385.191 168.455 387.096 166.449 389.267 165.049C391.438 163.657 393.808 162.962 396.378 162.962C398.106 162.962 399.435 163.259 400.365 163.852C401.295 164.455 401.761 165.288 401.761 166.351ZM397.973 184.626L401.163 169.607C401.163 168.943 400.919 168.354 400.432 167.84C399.944 167.335 399.28 167.082 398.438 167.082C396.001 167.082 393.844 169.12 391.965 173.196C390.078 177.272 389.134 181.303 389.134 185.291C389.134 187.019 389.378 188.312 389.865 189.172C390.353 190.04 391.216 190.474 392.457 190.474C393.609 190.474 394.73 189.92 395.82 188.813C396.901 187.705 397.618 186.31 397.973 184.626ZM436.716 166.351V166.75L437.447 163.294H447.017L440.438 194.129C442.653 193.332 444.389 192.211 445.648 190.767C446.915 189.331 447.969 187.284 448.811 184.626H451.602C450.583 187.993 449.13 190.696 447.243 192.734C445.364 194.772 442.896 196.212 439.839 197.053L438.843 201.838C438.045 205.56 436.65 208.373 434.656 210.278C432.662 212.183 430.071 213.135 426.881 213.135C424.621 213.135 422.814 212.559 421.458 211.408C420.111 210.256 419.438 208.683 419.438 206.689C419.438 204.518 420.333 202.604 422.123 200.948C423.921 199.282 426.637 197.895 430.27 196.787L431.067 193.265C429.915 194.462 428.675 195.37 427.346 195.99C426.017 196.61 424.599 196.92 423.093 196.92C420.346 196.92 418.184 195.99 416.607 194.129C415.038 192.269 414.254 189.632 414.254 186.221C414.254 183.74 414.631 181.148 415.384 178.446C416.137 175.743 417.178 173.285 418.507 171.069C420.147 168.455 422.052 166.449 424.222 165.049C426.393 163.657 428.764 162.962 431.333 162.962C433.061 162.962 434.39 163.259 435.32 163.852C436.251 164.455 436.716 165.288 436.716 166.351ZM432.729 185.291L436.118 169.541C436.074 168.832 435.808 168.243 435.32 167.773C434.833 167.312 434.191 167.082 433.393 167.082C430.957 167.082 428.795 169.12 426.907 173.196C425.029 177.272 424.09 181.303 424.09 185.291C424.09 187.019 424.333 188.312 424.821 189.172C425.308 190.04 426.172 190.474 427.412 190.474C428.476 190.474 429.526 189.987 430.562 189.012C431.608 188.038 432.33 186.797 432.729 185.291ZM429.207 202.037L429.605 200.11C427.39 200.952 425.751 201.825 424.688 202.729C423.624 203.641 423.093 204.651 423.093 205.759C423.093 206.335 423.314 206.844 423.757 207.287C424.2 207.73 424.732 207.952 425.352 207.952C426.105 207.952 426.836 207.42 427.545 206.357C428.254 205.294 428.808 203.854 429.207 202.037ZM470.409 166.351V166.816L471.14 163.294H480.709L475.924 185.889C475.836 186.288 475.769 186.651 475.725 186.979C475.681 187.315 475.659 187.661 475.659 188.015C475.659 188.99 475.88 189.708 476.323 190.169C476.766 190.638 477.453 190.873 478.383 190.873C479.535 190.873 480.576 190.328 481.507 189.238C482.437 188.157 483.19 186.62 483.766 184.626H486.557C485.14 188.702 483.301 191.772 481.042 193.837C478.782 195.893 476.168 196.92 473.2 196.92C471.295 196.92 469.775 196.389 468.641 195.325C467.516 194.262 466.864 192.756 466.687 190.806C465.314 192.844 463.794 194.373 462.128 195.392C460.471 196.411 458.69 196.92 456.785 196.92C454.039 196.92 451.877 195.99 450.299 194.129C448.731 192.269 447.947 189.632 447.947 186.221C447.947 183.74 448.324 181.148 449.077 178.446C449.83 175.743 450.871 173.285 452.2 171.069C453.839 168.455 455.744 166.449 457.915 165.049C460.086 163.657 462.456 162.962 465.026 162.962C466.754 162.962 468.083 163.259 469.013 163.852C469.944 164.455 470.409 165.288 470.409 166.351ZM466.621 184.626L469.811 169.607C469.811 168.943 469.567 168.354 469.08 167.84C468.592 167.335 467.928 167.082 467.086 167.082C464.649 167.082 462.487 169.12 460.6 173.196C458.721 177.272 457.782 181.303 457.782 185.291C457.782 187.019 458.026 188.312 458.513 189.172C459.001 190.04 459.865 190.474 461.105 190.474C462.257 190.474 463.373 189.92 464.454 188.813C465.544 187.705 466.266 186.31 466.621 184.626Z" fill="#9376E0"/>
</g>
</g>
</g>
</g>
<g clip-path="url(#clip9_6_4)">
<g clip-path="url(#clip10_6_4)">
<path d="M152.104 219.498V221.427H194.301V219.498H152.104ZM257.867 67.6808L216.785 3.02968C216.394 1.79393 215.215 0.949997 213.892 0.949997H46.1304C44.8042 0.949997 43.7192 1.79393 43.3273 3.08996L2.57752 67.5C1.97471 67.8918 1.25134 73.1664 1.25134 73.1664C1.25134 98.3939 27.7146 84.9212 38.1733 84.9212C39.9818 84.9212 40.3736 87.7845 40.3736 98.1528L40.4037 76.1202L40.5846 154.154C41.4285 184.294 44.1713 163.196 53.1531 163.166C51.2844 159.157 53.1833 115.604 52.9421 110.993H52.8517V83.0524C55.3534 87.4228 60.9293 91.0095 67.0177 91.0095H67.0478C69.007 91.0095 100.106 91.0095 102.131 91.0095C107.406 91.0095 111.957 84.7705 114.218 81.2139C116.478 84.7705 119.914 88.116 124.073 89.8039C125.942 90.5876 127.931 91.0095 130.041 91.0095C132.151 91.0095 134.14 90.5876 136.009 89.8039C140.199 88.116 143.662 84.8006 145.865 81.2139C148.126 84.7705 150.733 91.0095 157.514 91.0095C159.54 91.0095 190.503 90.8588 191.799 90.9492C191.829 90.9492 191.829 90.9492 191.829 90.9492C192.224 91.0095 192.583 91.0095 192.977 91.0095C199.069 91.0095 204.759 87.4228 207.231 83.0524V110.996H206.782C206.541 115.484 211.487 119.797 209.732 123.715C217.69 123.685 217.147 153.825 218.925 153.825H219.254L219.649 98.1558C219.649 89.2945 223.109 84.9845 224.893 84.9845C235.319 84.9845 258.765 98.3969 258.765 73.1694C258.774 73.1664 258.259 68.0124 257.867 67.6808ZM17.8888 69.851L51.7667 11.9512H66.0231L42.4231 69.851H17.8888ZM102.704 69.851H57.0714L78.893 11.9512H108.22L102.704 69.851ZM117.352 69.851L121.09 11.9512H138.357L141.883 69.851H117.352ZM156.535 69.851L151.23 11.9512H180.554L202.164 69.851H156.535ZM216.815 69.851L193.427 11.9512H207.68L241.347 69.851H216.815ZM152.104 221.427H194.301V219.498H152.104V221.427Z" fill="#9376E0"/>
<path d="M130.041 91.0095C127.931 91.0095 125.942 90.5875 124.073 89.8039H136.009C134.14 90.5875 132.151 91.0095 130.041 91.0095Z" fill="#9376E0"/>
<path d="M218.925 110.902V190.262C218.925 210.245 202.74 226.43 182.757 226.43H76.2708C56.2877 226.43 40.1023 213.377 40.1023 190.262V80.7618C40.1023 109.335 40.1927 107.768 40.4037 106.261C41.5792 97.0979 43.1465 164.371 49.8376 158.675L52.8517 110.996L52.9421 141.136C53.1832 145.741 54.2984 180.255 56.1671 184.267C61.8637 196.715 74.4322 205.335 89.0202 205.335H170.701C185.379 205.335 198.038 196.594 203.704 183.996C205.45 180.077 206.532 175.767 206.782 171.276L207.231 110.996V99.3313C214.434 105.959 218.925 100.353 218.925 110.902Z" fill="#9376E0"/>
<path d="M151.486 203.53C151.486 213.413 143.475 221.427 133.589 221.427C123.706 221.427 115.691 213.416 115.691 203.53V172.997C115.691 163.114 123.703 155.1 133.589 155.1C143.472 155.1 151.486 163.111 151.486 172.997V203.53Z" fill="#9376E0"/>
<path d="M195.567 111.279C195.567 114.817 192.7 117.684 189.162 117.684H70.8606C67.3222 117.684 64.4558 114.817 64.4558 111.279C64.4558 107.74 67.3222 104.874 70.8606 104.874H189.162C192.7 104.874 195.567 107.74 195.567 111.279Z" fill="#9376E0"/>
<path d="M195.567 132.377C195.567 135.916 192.7 138.782 189.162 138.782H70.8606C67.3222 138.782 64.4558 135.916 64.4558 132.377C64.4558 128.839 67.3222 125.972 70.8606 125.972H189.162C192.7 125.972 195.567 128.839 195.567 132.377Z" fill="#9376E0"/>
</g>
</g>
</g>
</g>
</g>
<defs>
<clipPath id="clip0_6_4">
<rect width="700" height="226.1" fill="white" transform="translate(0.575806 0.640167)"/>
</clipPath>
<clipPath id="clip1_6_4">
<rect width="698.649" height="225.48" fill="white" transform="translate(1.25134 0.949997)"/>
</clipPath>
<clipPath id="clip2_6_4">
<rect width="698.649" height="225.48" fill="white" transform="translate(1.25134 0.949997)"/>
</clipPath>
<clipPath id="clip3_6_4">
<rect width="416.689" height="198.89" fill="white" transform="translate(283.212 14.245)"/>
</clipPath>
<clipPath id="clip4_6_4">
<rect width="416.689" height="198.89" fill="white" transform="translate(283.212 14.245)"/>
</clipPath>
<clipPath id="clip5_6_4">
<rect width="414.616" height="103.554" fill="white" transform="translate(284.248 14.245)"/>
</clipPath>
<clipPath id="clip6_6_4">
<rect width="414.616" height="103.554" fill="white" transform="translate(284.248 14.245)"/>
</clipPath>
<clipPath id="clip7_6_4">
<rect width="203.352" height="63.9962" fill="white" transform="translate(283.212 149.139)"/>
</clipPath>
<clipPath id="clip8_6_4">
<rect width="203.352" height="63.9962" fill="white" transform="translate(283.212 149.139)"/>
</clipPath>
<clipPath id="clip9_6_4">
<rect width="257.514" height="225.48" fill="white" transform="translate(1.25134 0.949997)"/>
</clipPath>
<clipPath id="clip10_6_4">
<rect width="257.514" height="225.48" fill="white" transform="translate(1.25134 0.949997)"/>
</clipPath>
</defs>
</svg>
