<svg xmlns="http://www.w3.org/2000/svg" version="1.1" xmlns:xlink="http://www.w3.org/1999/xlink" xmlns:svgjs="http://svgjs.dev/svgjs" width="1000" height="1000" viewBox="0 0 1000 1000"><rect width="1000" height="1000" fill="#000000"></rect><g transform="matrix(0.7,0,0,0.7,149.57575757575756,386.6401671020621)"><svg viewBox="0 0 396 128" data-background-color="#ffffff" preserveAspectRatio="xMidYMid meet" height="323" width="1000" xmlns="http://www.w3.org/2000/svg" xmlns:xlink="http://www.w3.org/1999/xlink"><g id="tight-bounds" transform="matrix(1,0,0,1,0.2400000000000091,0.17540296743055706)"><svg viewBox="0 0 395.52 127.64919406513887" height="127.64919406513887" width="395.52"><g><svg viewBox="0 0 666.4717433317434 215.09552210630343" height="127.64919406513887" width="395.52"><g transform="matrix(1,0,0,1,268.97414333174345,12.682658073439185)"><svg viewBox="0 0 397.4975999999999 189.73020595942506" height="189.73020595942506" width="397.4975999999999"><g id="textblocktransform"><svg viewBox="0 0 397.4975999999999 189.73020595942506" height="189.73020595942506" width="397.4975999999999" id="textblock"><g><rect width="397.4975999999999" height="8.908479335126007" x="0" y="109.27868413071221" fill="#ffffff" opacity="1" stroke-width="0" stroke="transparent" fill-opacity="1" class="rect-o$-0" data-fill-palette-color="primary" rx="1%" id="o$-0" data-palette-color="#9376e0"></rect></g><g transform="matrix(1,0,0,1,0.9887999999999693,0)"><svg viewBox="0 0 395.52 98.78440219142765" height="98.78440219142765" width="395.52"><g transform="matrix(1,0,0,1,0,0)"><svg width="395.52" viewBox="5.15 -37.9 155.14 38.75" height="98.78440219142765" data-palette-color="#9376e0"><path d="M19.6 0.85Q12.35 0.85 8.75-2.83 5.15-6.5 5.15-13.25L5.15-13.25 5.15-37.9 10.05-37.9 10.05-13.25Q10.05-8.4 12.45-5.9 14.85-3.4 19.6-3.4L19.6-3.4Q24.35-3.4 26.75-5.9 29.15-8.4 29.15-13.25L29.15-13.25 29.15-37.9 34.05-37.9 34.05-13.25Q34.05-6.5 30.45-2.83 26.85 0.85 19.6 0.85L19.6 0.85ZM74.55-37.9L79.9-37.9 79.9 0 75.05 0 75.05-30.55 63.45-14.4 60.9-14.4 49.4-30.55 49.4 0 44.55 0 44.55-37.9 49.85-37.9 62.2-20.6 74.55-37.9ZM111.7 0L98.05-17.1 95.45-14.35 95.45 0 90.59 0 90.59-37.9 95.45-37.9 95.45-20.95 111.55-37.9 117.7-37.9 101.34-20.6 117.95 0 111.7 0ZM154.94-37.9L160.29-37.9 160.29 0 155.44 0 155.44-30.55 143.84-14.4 141.29-14.4 129.79-30.55 129.79 0 124.94 0 124.94-37.9 130.24-37.9 142.59-20.6 154.94-37.9Z" opacity="1" transform="matrix(1,0,0,1,0,0)" fill="#ffffff" class="undefined-text-0" data-fill-palette-color="primary" id="text-0"></path></svg></g></svg></g><g transform="matrix(1,0,0,1,0,128.6814454051228)"><svg viewBox="0 0 193.98671578002595 61.048760554302284" height="61.048760554302284" width="193.98671578002595"><g transform="matrix(1,0,0,1,0,0)"><svg width="193.98671578002595" viewBox="-0.65 -35.65 152.99 48.15" height="61.048760554302284" data-palette-color="#9376e0"><path d="M18.35-20.65L18.35-20.65Q18.35-16.5 14.95-13.43 11.55-10.35 6.85-10.1L6.85-10.1Q6.8-9.25 6.78-8.83 6.75-8.4 6.75-8.1L6.75-8.1Q6.75-5.8 7.53-4.85 8.3-3.9 10.35-3.9L10.35-3.9Q12.7-3.9 14.68-4.98 16.65-6.05 19.2-8.95L19.2-8.95 20.9-8.95Q18-4.25 14.6-1.98 11.2 0.3 7.15 0.3L7.15 0.3Q3.3 0.3 1.33-1.7-0.65-3.7-0.65-7.65L-0.65-7.65Q-0.65-10.5 0.25-13.7 1.15-16.9 2.65-19.4L2.65-19.4Q4.5-22.4 7.08-23.93 9.65-25.45 12.85-25.45L12.85-25.45Q15.6-25.45 16.98-24.28 18.35-23.1 18.35-20.65ZM13.25-22.8L13.25-22.8Q11.55-22.8 9.83-19.78 8.1-16.75 7.25-12.5L7.25-12.5Q10.15-12.7 12.33-15.18 14.5-17.65 14.5-20.75L14.5-20.75Q14.5-21.8 14.2-22.3 13.9-22.8 13.25-22.8ZM30.2-11.1L20.15-11.1 21.05-15.05 31.05-15.05 30.2-11.1ZM45.85-5.35L45.85-5.35Q45.85-6.25 46.07-7.6 46.3-8.95 47-11.9L47-11.9Q47.7-14.75 47.9-16 48.1-17.25 48.1-18.1L48.1-18.1Q48.1-19.35 47.65-20 47.2-20.65 46.3-20.65L46.3-20.65Q45.1-20.65 44.07-19.43 43.05-18.2 42.4-16.05L42.4-16.05 39 0 31.8 0 37.1-25 44.3-25 43.75-22.4Q45-23.8 46.45-24.5 47.9-25.2 49.6-25.2L49.6-25.2Q52.25-25.2 53.7-23.75 55.15-22.3 55.15-19.55L55.15-19.55Q55.15-18.4 54.87-16.82 54.6-15.25 53.8-12L53.8-12Q53.15-9.45 52.95-8.4 52.75-7.35 52.75-6.65L52.75-6.65Q52.75-5.6 53.25-5.08 53.75-4.55 54.75-4.55L54.75-4.55Q56-4.55 56.9-5.4 57.8-6.25 58.95-8.95L58.95-8.95 61.05-8.95Q59.45-4.3 57.17-2 54.9 0.3 51.75 0.3L51.75 0.3Q48.95 0.3 47.4-1.23 45.85-2.75 45.85-5.35ZM71.29-31.65L71.29-31.65Q71.29-30 70.12-28.85 68.94-27.7 67.29-27.7L67.29-27.7Q65.64-27.7 64.49-28.85 63.34-30 63.34-31.65L63.34-31.65Q63.34-33.3 64.49-34.48 65.64-35.65 67.29-35.65L67.29-35.65Q68.94-35.65 70.12-34.48 71.29-33.3 71.29-31.65ZM58.54-5.7L58.54-5.7Q58.54-6.35 58.64-7.18 58.74-8 58.94-8.95L58.94-8.95 62.34-25 69.54-25 65.94-8Q65.84-7.55 65.79-7.18 65.74-6.8 65.74-6.4L65.74-6.4Q65.74-5.4 66.22-4.98 66.69-4.55 67.79-4.55L67.79-4.55Q69.19-4.55 70.44-5.78 71.69-7 72.29-8.95L72.29-8.95 74.39-8.95Q72.79-4.4 70.09-2.05 67.39 0.3 63.89 0.3L63.89 0.3Q61.39 0.3 59.97-1.28 58.54-2.85 58.54-5.7ZM88.54-22.7L88.54-22.7 88.54-22.35 89.09-25 96.29-25 92.69-8Q92.59-7.55 92.54-7.18 92.49-6.8 92.49-6.4L92.49-6.4Q92.49-5.3 92.99-4.78 93.49-4.25 94.54-4.25L94.54-4.25Q95.84-4.25 96.89-5.48 97.94-6.7 98.59-8.95L98.59-8.95 100.69-8.95Q99.09-4.35 96.54-2.02 93.99 0.3 90.64 0.3L90.64 0.3Q88.49 0.3 87.22-0.9 85.94-2.1 85.74-4.3L85.74-4.3Q84.19-2 82.32-0.85 80.44 0.3 78.29 0.3L78.29 0.3Q75.19 0.3 73.42-1.8 71.64-3.9 71.64-7.75L71.64-7.75Q71.64-10.55 72.49-13.6 73.34-16.65 74.84-19.15L74.84-19.15Q76.69-22.1 79.14-23.68 81.59-25.25 84.49-25.25L84.49-25.25Q86.44-25.25 87.49-24.58 88.54-23.9 88.54-22.7ZM85.69-8.95L88.09-20.25Q88.09-21 87.54-21.58 86.99-22.15 86.04-22.15L86.04-22.15Q83.29-22.15 81.17-17.55 79.04-12.95 79.04-8.45L79.04-8.45Q79.04-6.5 79.59-5.53 80.14-4.55 81.54-4.55L81.54-4.55Q82.84-4.55 84.07-5.8 85.29-7.05 85.69-8.95L85.69-8.95ZM114.84-22.7L114.84-22.7 114.84-22.4 115.39-25 122.59-25 117.64-1.8Q120.14-2.7 121.56-4.33 122.99-5.95 123.94-8.95L123.94-8.95 126.04-8.95Q124.89-5.15 122.76-2.85 120.64-0.55 117.19 0.4L117.19 0.4 116.44 4Q115.54 8.2 113.29 10.35 111.04 12.5 107.44 12.5L107.44 12.5Q104.89 12.5 103.36 11.2 101.84 9.9 101.84 7.65L101.84 7.65Q101.84 5.2 103.86 3.33 105.89 1.45 109.99 0.2L109.99 0.2 110.59-2.45Q109.29-1.1 107.79-0.4 106.29 0.3 104.59 0.3L104.59 0.3Q101.49 0.3 99.71-1.8 97.94-3.9 97.94-7.75L97.94-7.75Q97.94-10.55 98.79-13.6 99.64-16.65 101.14-19.15L101.14-19.15Q102.99-22.1 105.44-23.68 107.89-25.25 110.79-25.25L110.79-25.25Q112.74-25.25 113.79-24.58 114.84-23.9 114.84-22.7ZM111.84-8.45L114.39-20.3Q114.34-21.1 113.79-21.63 113.24-22.15 112.34-22.15L112.34-22.15Q109.59-22.15 107.46-17.55 105.34-12.95 105.34-8.45L105.34-8.45Q105.34-6.5 105.89-5.53 106.44-4.55 107.84-4.55L107.84-4.55Q109.04-4.55 110.21-5.65 111.39-6.75 111.84-8.45L111.84-8.45ZM109.19 4.15L109.49 2.7Q106.99 3.65 105.79 4.67 104.59 5.7 104.59 6.95L104.59 6.95Q104.59 7.6 105.09 8.1 105.59 8.6 106.29 8.6L106.29 8.6Q107.14 8.6 107.94 7.4 108.74 6.2 109.19 4.15L109.19 4.15ZM140.19-22.7L140.19-22.7 140.19-22.35 140.74-25 147.94-25 144.34-8Q144.24-7.55 144.19-7.18 144.14-6.8 144.14-6.4L144.14-6.4Q144.14-5.3 144.64-4.78 145.14-4.25 146.19-4.25L146.19-4.25Q147.49-4.25 148.54-5.48 149.59-6.7 150.24-8.95L150.24-8.95 152.34-8.95Q150.74-4.35 148.19-2.02 145.64 0.3 142.29 0.3L142.29 0.3Q140.14 0.3 138.86-0.9 137.59-2.1 137.39-4.3L137.39-4.3Q135.84-2 133.96-0.85 132.09 0.3 129.94 0.3L129.94 0.3Q126.84 0.3 125.06-1.8 123.29-3.9 123.29-7.75L123.29-7.75Q123.29-10.55 124.14-13.6 124.99-16.65 126.49-19.15L126.49-19.15Q128.34-22.1 130.79-23.68 133.24-25.25 136.14-25.25L136.14-25.25Q138.09-25.25 139.14-24.58 140.19-23.9 140.19-22.7ZM137.34-8.95L139.74-20.25Q139.74-21 139.19-21.58 138.64-22.15 137.69-22.15L137.69-22.15Q134.94-22.15 132.81-17.55 130.69-12.95 130.69-8.45L130.69-8.45Q130.69-6.5 131.24-5.53 131.79-4.55 133.19-4.55L133.19-4.55Q134.49-4.55 135.71-5.8 136.94-7.05 137.34-8.95L137.34-8.95Z" opacity="1" transform="matrix(1,0,0,1,0,0)" fill="#ffffff" class="undefined-text-1" data-fill-palette-color="secondary" id="text-1"></path></svg></g></svg></g></svg></g></svg></g><g><svg viewBox="0 0 245.65351679999995 215.09552210630343" height="215.09552210630343" width="245.65351679999995"><g><svg xmlns="http://www.w3.org/2000/svg" xmlns:xlink="http://www.w3.org/1999/xlink" version="1.1" x="0" y="0" viewBox="7.279999999999999 10.020000000000001 85.43803893195712 74.81" enable-background="new 0 0 100 100" xml:space="preserve" height="215.09552210630343" width="245.65351679999995" class="icon-icon-0" data-fill-palette-color="accent" id="icon-0"><path d="M57.33 82.53v0.64h14v-0.64H57.33zM92.42 32.16L78.79 10.71c-0.13-0.41-0.521-0.69-0.96-0.69H22.17c-0.44 0-0.8 0.28-0.93 0.71L7.72 32.1c-0.2 0.13-0.44 1.88-0.44 1.88 0 8.37 8.78 3.9 12.25 3.9 0.6 0 0.73 0.95 0.73 4.39l0.01-7.31 0.06 25.89c0.28 10 1.19 3 4.17 2.99-0.62-1.33 0.01-15.78-0.07-17.31H24.4v-9.27c0.83 1.45 2.68 2.64 4.7 2.64h0.01c0.65 0 10.968 0 11.64 0 1.75 0 3.26-2.07 4.01-3.25 0.75 1.18 1.89 2.29 3.27 2.85 0.62 0.26 1.28 0.4 1.98 0.4 0.7 0 1.36-0.14 1.98-0.4 1.39-0.56 2.539-1.66 3.27-2.85 0.75 1.18 1.615 3.25 3.865 3.25 0.672 0 10.945-0.05 11.375-0.02 0.01 0 0.01 0 0.01 0 0.131 0.02 0.25 0.02 0.381 0.02 2.021 0 3.909-1.19 4.729-2.64v9.271h-0.149c-0.08 1.489 1.561 2.92 0.979 4.22 2.64-0.01 2.46 9.99 3.05 9.99h0.109l0.131-18.47c0-2.94 1.148-4.37 1.74-4.37 3.459 0 11.238 4.45 11.238-3.92C92.721 33.98 92.55 32.27 92.42 32.16zM12.8 32.88l11.24-19.21h4.73l-7.83 19.21H12.8zM40.94 32.88H25.8l7.24-19.21h9.73L40.94 32.88zM45.8 32.88l1.24-19.21h5.729l1.17 19.21H45.8zM58.8 32.88l-1.76-19.21h9.729l7.17 19.21H58.8zM78.8 32.88l-7.76-19.21h4.729l11.17 19.21H78.8zM57.33 83.17h14v-0.64h-14V83.17z" fill="#ffffff" data-fill-palette-color="accent"></path><path d="M30.93 39.56" fill="#ffffff" data-fill-palette-color="accent"></path><path d="M50.01 39.9c-0.7 0-1.36-0.14-1.98-0.4h3.96C51.37 39.76 50.71 39.9 50.01 39.9z" fill="#ffffff" data-fill-palette-color="accent"></path><path d="M79.5 46.5v26.33c0 6.63-5.37 12-12 12H32.17c-6.63 0-12-4.331-12-12V36.5c0 9.48 0.03 8.96 0.1 8.46 0.39-3.04 0.91 19.28 3.13 17.39l1-15.819 0.03 10c0.08 1.528 0.45 12.979 1.07 14.31 1.89 4.13 6.06 6.99 10.9 6.99h27.1c4.87 0 9.07-2.9 10.95-7.08 0.579-1.3 0.938-2.73 1.021-4.22l0.149-20v-3.87C78.01 44.86 79.5 43 79.5 46.5z" fill="#ffffff" data-fill-palette-color="accent"></path><path d="M57.125 77.232c0 3.279-2.658 5.938-5.938 5.938l0 0c-3.279 0-5.938-2.658-5.938-5.938v-10.13c0-3.279 2.658-5.938 5.938-5.938l0 0c3.279 0 5.938 2.658 5.938 5.938V77.232z" fill="#ffffff" data-fill-palette-color="accent"></path><path d="M71.75 46.625c0 1.174-0.951 2.125-2.125 2.125h-39.25c-1.174 0-2.125-0.951-2.125-2.125l0 0c0-1.174 0.951-2.125 2.125-2.125h39.25C70.799 44.5 71.75 45.451 71.75 46.625L71.75 46.625z" fill="#ffffff" data-fill-palette-color="accent"></path><path d="M71.75 53.625c0 1.174-0.951 2.125-2.125 2.125h-39.25c-1.174 0-2.125-0.951-2.125-2.125l0 0c0-1.174 0.951-2.125 2.125-2.125h39.25C70.799 51.5 71.75 52.451 71.75 53.625L71.75 53.625z" fill="#ffffff" data-fill-palette-color="accent"></path></svg></g></svg></g></svg></g><defs></defs></svg><rect width="395.52" height="127.64919406513887" fill="none" stroke="none" visibility="hidden"></rect></g></svg></g></svg>